<?xml version="1.0" encoding="utf-8"?>
<!-- Generator: Adobe Illustrator 22.1.0, SVG Export Plug-In . SVG Version: 6.00 Build 0)  -->
<svg version="1.1" id="Layer_1" xmlns="http://www.w3.org/2000/svg" xmlns:xlink="http://www.w3.org/1999/xlink" x="0px" y="0px"
	 viewBox="0 0 248 75" style="enable-background:new 0 0 248 75;" xml:space="preserve">
<style type="text/css">
	.st0{fill:#E9272A;}
	.st1{fill:#FEFEFE;}
	.st2{fill:#E8272B;}
</style>
<title>logo-formula_drift</title>
<desc>Created with Sketch.</desc>
<g id="Page-1">
	<g id="Navigation" transform="translate(0.000000, -2.000000)">
		<g id="Group-36" transform="translate(6.745708, 1.213129)">
			<polygon id="Fill-1" points="0.3,21.9 -2.6,55.5 2.2,55.5 3.4,41.1 10.1,41.1 10.5,36.3 3.9,36.3 4.7,26.7 12.4,26.7 12.8,21.9 
							"/>
			<path id="Fill-2" d="M27.2,49c-0.4,4.7-2.9,7.1-7.5,7.1c-4.6,0-6.7-2.3-6.3-7.1l1.8-20.5c0.4-4.7,2.9-7.1,7.5-7.1
				c4.6,0,6.7,2.3,6.3,7.1L27.2,49z M24.2,28.5c0.1-1.5-0.5-2.3-1.9-2.3h0c-1.4,0-2.1,0.8-2.3,2.3L18.2,49c-0.1,1.5,0.5,2.3,1.9,2.3
				c1.4,0,2.2-0.8,2.3-2.3L24.2,28.5z"/>
			<path id="Fill-4" d="M33.7,21.9l7,0c4.3,0,6.2,2.4,5.8,7.1l-0.4,5c-0.3,3-1.7,4.9-4.3,5.8l4.1,15.6h-5.3l-3.1-14.8l-0.6,0.1
				l-1.3,14.7h-4.8L33.7,21.9z M38.1,26.7l-0.8,9.6h1.1c0.7,0,1.1,0,1.4-0.1c0.9-0.4,1.4-1.1,1.5-2.1l0.4-5c0.1-1.5-0.5-2.3-1.9-2.3
				H38.1z"/>
			<polygon id="Fill-6" points="60,44.9 67.6,21.9 72.4,21.9 69.5,55.5 64.8,55.5 66.5,36.7 60.7,55.5 57.5,55.5 54.8,36.7 
				53.2,55.5 48.5,55.5 51.5,21.9 56.3,21.9 			"/>
			<path id="Fill-8" d="M88.2,49c-0.4,4.7-2.9,7.1-7.6,7.1c-4.6,0-6.7-2.4-6.3-7.1l2.4-27.1h4.8L79.1,49c-0.1,1.5,0.5,2.3,1.9,2.3
				c1.4,0,2.2-0.8,2.3-2.3l2.4-27.1h4.8L88.2,49z"/>
			<polygon id="Fill-10" points="91.9,55.5 94.8,21.9 99.6,21.9 97.1,50.7 104.8,50.7 104.4,55.5 			"/>
			<path id="Fill-12" d="M121.8,43.6l0.5,11.9h-4.9l-0.3-7.1h-4.9l-1.6,7.1h-4.9l2.6-11.9l5.3-21.7h6.6L121.8,43.6z M116.9,43.6
				l-0.6-14l-3.1,14H116.9z"/>
			<polygon id="Fill-14" class="st0" points="227.5,62.9 126.2,62.9 130.4,14.6 231.8,14.6 			"/>
			<path id="Fill-16" class="st1" d="M136.9,18.5l9.3,0c5.4,0,7.8,2.9,7.3,8.7l-2,22.9c-0.5,5.8-3.4,8.7-8.8,8.7c-0.1,0-0.2,0-0.3,0
				h-8.9L136.9,18.5z M143,25l-2.4,27.5h2c1.3,0,2-0.8,2.2-2.3l2-22.9c0.1-1.5-0.5-2.3-1.8-2.3H143z"/>
			<path id="Fill-18" class="st1" d="M157.4,18.5l8.8,0c5.4,0,7.8,2.9,7.3,8.7l-0.5,5.9c-0.3,3.7-2,6-5,7.1l4.8,18.6h-7.3l-3.6-17.3
				l0.2,0l-1.5,17.3h-6.7L157.4,18.5z M163.5,25l-0.9,10.5h0.8c0.7,0,1.2,0,1.4-0.1c0.9-0.3,1.4-1.1,1.5-2.2l0.5-5.9
				c0.1-1.5-0.5-2.3-1.8-2.3H163.5z"/>
			<polygon id="Fill-20" class="st1" points="179.6,18.5 186.3,18.5 182.8,58.9 176.1,58.9 			"/>
			<polygon id="Fill-22" class="st1" points="190,18.5 205.7,18.5 205.2,25 196.1,25 195.2,35.5 203,35.5 202.4,41.9 194.6,41.9 
				193.2,58.9 186.5,58.9 			"/>
			<polygon id="Fill-24" class="st1" points="225.3,18.5 224.7,25 219.4,25 216.4,58.9 209.7,58.9 212.7,25 207.4,25 207.9,18.5 			
				"/>
			<path id="Fill-26" class="st2" d="M237,21.5l0.1-1.4c0-0.2-0.1-0.4-0.4-0.4h-1.1l-0.3,3h0.6l0.1-1h0.1l0.2,1h0.6l-0.2-1
				C236.8,21.7,236.9,21.6,237,21.5L237,21.5z M236.4,21.2C236.4,21.2,236.4,21.3,236.4,21.2l-0.4,0.1l0.1-1h0.3c0,0,0.1,0,0,0.1
				L236.4,21.2z"/>
			<path id="Fill-28" class="st2" d="M236.5,18.4c-1.5,0-2.9,1.3-3,2.8c-0.1,1.5,1,2.8,2.5,2.8c1.5,0,2.9-1.2,3-2.8
				C239.1,19.7,238,18.4,236.5,18.4 M236.1,23.3c-1.1,0-2-0.9-1.9-2.1c0.1-1.1,1.1-2.1,2.2-2.1c1.1,0,2,0.9,1.9,2.1
				C238.2,22.3,237.2,23.3,236.1,23.3"/>
		</g>
	</g>
</g>
</svg>
